<?xml version="1.0" encoding="utf-8"?>
<svg version="1.1" xmlns="http://www.w3.org/2000/svg" xmlns:xlink="http://www.w3.org/1999/xlink" x="0px" y="0px"
	 viewBox="0 0 64 64" style="enable-background:new 0 0 64 64;" xml:space="preserve">
<style type="text/css">
	.st1{opacity:0.2;}
	.st3{fill:#d19e0e;}
	.st4{fill:#24ae2e;}
	.st5{fill:#1162c6;}

  #s1 { animation: float 6s ease-in-out 0s infinite; transform: translateY(-1px); }
  #s2 { animation: float 6s ease-in-out 0.5s infinite reverse; transform: translateY(-1px); }
  #s3 { animation: float 6s ease-in-out 1s infinite; transform: translateY(-1px); }

  @keyframes float {
      0% { transform: translateY(-1px); }
     50% { transform: translateY(1px); }
     100% { transform: translateY(-1px); }
  }
</style>
<g id="stack">
  <g id="s1">
	<g class="st1">
		<path class="st2" d="M33.8,53.6c-1,0.6-2.5,0.6-3.5,0L12.7,43.1c-1-0.6-1-1.5,0-2.1l17.5-10.5c1-0.6,2.5-0.6,3.5,0l17.5,10.5
			c1,0.6,1,1.5,0,2.1L33.8,53.6z"/>
	</g>
	<g>
		<path class="st3" d="M33.8,51.6c-1,0.6-2.5,0.6-3.5,0L12.7,41.1c-1-0.6-1-1.5,0-2.1l17.5-10.5c1-0.6,2.5-0.6,3.5,0l17.5,10.5
			c1,0.6,1,1.5,0,2.1L33.8,51.6z"/>
	</g>
</g>

  <g id="s2">
	<g class="st1">
		<path class="st2" d="M33.8,45.6c-1,0.6-2.5,0.6-3.5,0L12.7,35.1c-1-0.6-1-1.5,0-2.1l17.5-10.5c1-0.6,2.5-0.6,3.5,0l17.5,10.5
			c1,0.6,1,1.5,0,2.1L33.8,45.6z"/>
	</g>
	<g>
		<path class="st4" d="M33.8,43.6c-1,0.6-2.5,0.6-3.5,0L12.7,33.1c-1-0.6-1-1.5,0-2.1l17.5-10.5c1-0.6,2.5-0.6,3.5,0l17.5,10.5
			c1,0.6,1,1.5,0,2.1L33.8,43.6z"/>
	</g>
</g>

  <g id="s3">
	<g class="st1">
		<path class="st2" d="M33.8,37.6c-1,0.6-2.5,0.6-3.5,0L12.7,27.1c-1-0.6-1-1.5,0-2.1l17.5-10.5c1-0.6,2.5-0.6,3.5,0l17.5,10.5
			c1,0.6,1,1.5,0,2.1L33.8,37.6z"/>
	</g>
	<g>
		<path class="st5" d="M33.8,35.6c-1,0.6-2.5,0.6-3.5,0L12.7,25.1c-1-0.6-1-1.5,0-2.1l17.5-10.5c1-0.6,2.5-0.6,3.5,0l17.5,10.5
			c1,0.6,1,1.5,0,2.1L33.8,35.6z"/>
	</g>
</g>
</g>
</svg>
